<svg id="Capa_1" enable-background="new 0 0 512 512" height="512" viewBox="0 0 512 512" width="512" xmlns="http://www.w3.org/2000/svg"><g><path d="m256 0c-141.491 0-256 114.497-256 256 0 68.38 26.629 132.667 74.98 181.02 48.353 48.351 112.64 74.98 181.02 74.98s132.667-26.629 181.02-74.98c48.351-48.353 74.98-112.64 74.98-181.02 0-141.491-114.497-256-256-256zm0 482c-124.617 0-226-101.383-226-226s101.383-226 226-226 226 101.383 226 226-101.383 226-226 226z"/><path d="m336.547 366.009c-6.224-5.468-15.701-4.855-21.169 1.368-15.013 17.087-36.655 26.887-59.378 26.887-43.563 0-79.005-35.442-79.005-79.005 0-23.473 10.342-45.58 28.375-60.652 6.356-5.313 7.202-14.772 1.889-21.129-5.313-6.356-14.771-7.201-21.129-1.889-24.87 20.788-39.134 51.285-39.134 83.67 0 60.106 48.899 109.005 109.005 109.005 31.352 0 61.208-13.517 81.915-37.086 5.467-6.223 4.855-15.701-1.369-21.169z"/><path d="m405.553 348.75h-10.396l-32.164-55.656c-2.681-4.638-7.631-7.495-12.987-7.495h-79.006v-49.346h66.128c8.284 0 15-6.716 15-15s-6.716-15-15-15h-66.128v-28.008c24.865-6.635 43.238-29.343 43.238-56.27 0-32.113-26.126-58.239-58.238-58.239-32.113 0-58.239 26.126-58.239 58.239 0 26.927 18.373 49.636 43.239 56.271v122.354c0 8.284 6.716 15 15 15h85.349l32.164 55.656c2.681 4.638 7.631 7.495 12.987 7.495h19.053c8.284 0 15-6.716 15-15s-6.716-15.001-15-15.001zm-177.792-226.775c0-15.571 12.668-28.239 28.239-28.239 15.57 0 28.238 12.668 28.238 28.239s-12.668 28.238-28.238 28.238c-15.571 0-28.239-12.668-28.239-28.238z"/></g></svg>
