<svg height="512" viewBox="0 0 512 512" width="512" xmlns="http://www.w3.org/2000/svg"><g id="outline"><path d="m471.861 86.985a40.174 40.174 0 0 0 -20.478-3 39.964 39.964 0 0 0 -36.718-15.885 39.943 39.943 0 0 0 -36.713-15.874 39.964 39.964 0 0 0 -36.714-15.875 39.983 39.983 0 0 0 -71.826 28.459 39.95 39.95 0 0 0 -15.88 36.716 39.908 39.908 0 0 0 -16.075 34.313 120.007 120.007 0 1 0 -161.557 168.015 34.423 34.423 0 0 0 -13.184 43.935 34.4 34.4 0 0 0 0 56.422 34.4 34.4 0 0 0 28.211 48.862 34.4 34.4 0 0 0 48.862 28.211 34.4 34.4 0 0 0 56.422 0 34.4 34.4 0 0 0 48.862-28.211 34.4 34.4 0 0 0 28.211-48.862 34.394 34.394 0 0 0 3.83-53.315 40.257 40.257 0 0 0 14.8 1.071 39.915 39.915 0 0 0 36.71 15.871 39.99 39.99 0 0 0 71.83-28.455 39.964 39.964 0 0 0 15.88-36.718 39.928 39.928 0 0 0 15.87-36.713 39.956 39.956 0 0 0 15.879-36.714 39.943 39.943 0 0 0 15.88-36.716 39.917 39.917 0 0 0 15.871-36.713 39.99 39.99 0 0 0 -7.977-68.824zm-428.948 159.322a104 104 0 1 1 186.225-92.662l.008.014c.009.024.019.045.022.052.038.084.077.167.118.249a104.036 104.036 0 0 1 -14.314 113.758 34.169 34.169 0 0 0 -18.761 3 34.4 34.4 0 0 0 -56.422 0 34.165 34.165 0 0 0 -14.863-3.252l-6.895-13.858-14.324 7.127 5.359 10.771c-.356.19-.715.37-1.066.573a34.246 34.246 0 0 0 -16.3 21.978 103.325 103.325 0 0 1 -48.787-47.75zm216.331 147.174a8 8 0 0 0 -3.484 13 18.357 18.357 0 0 1 -17.481 30.28 8 8 0 0 0 -9.517 9.516 18.358 18.358 0 0 1 -30.28 17.482 8 8 0 0 0 -13 3.484 18.356 18.356 0 0 1 -34.962 0 8 8 0 0 0 -13-3.484 18.357 18.357 0 0 1 -30.28-17.482 8 8 0 0 0 -9.517-9.516 18.357 18.357 0 0 1 -17.481-30.28 8 8 0 0 0 -3.484-13 18.356 18.356 0 0 1 0-34.962 8 8 0 0 0 3.484-13 18.357 18.357 0 0 1 17.482-30.28 8 8 0 0 0 9.516-9.516 18.358 18.358 0 0 1 30.28-17.482 8 8 0 0 0 13-3.484 18.356 18.356 0 0 1 34.962 0 8 8 0 0 0 13 3.484 18.357 18.357 0 0 1 30.28 17.482 8 8 0 0 0 9.516 9.516 18.363 18.363 0 0 1 22.022 20.851c-.053.239-.1.478-.127.719a18.319 18.319 0 0 1 -4.41 8.709 8 8 0 0 0 3.484 13 18.356 18.356 0 0 1 0 34.962zm218.772-260.242a23.657 23.657 0 0 1 -10.782 11.661 8 8 0 0 0 -3.979 9.191 23.959 23.959 0 0 1 -11.9 27.534 8 8 0 0 0 -3.968 9.19 23.96 23.96 0 0 1 -11.9 27.515 8 8 0 0 0 -3.978 9.192 23.978 23.978 0 0 1 -11.91 27.533 8 8 0 0 0 -3.969 9.189 23.951 23.951 0 0 1 -11.893 27.516 8 8 0 0 0 -3.977 9.194 23.977 23.977 0 0 1 -11.911 27.53 8 8 0 0 0 -3.969 9.189 23.993 23.993 0 0 1 -44.347 17.556 8 8 0 0 0 -9.189-3.969 23.953 23.953 0 0 1 -27.521-11.9 8 8 0 0 0 -9.189-3.968 23.758 23.758 0 0 1 -15.855-1.118q-.625-.272-1.232-.577a34.435 34.435 0 0 0 -31.47-34.764 34.2 34.2 0 0 0 -14.417-25.134 119.97 119.97 0 0 0 15.35-121.778 24.017 24.017 0 0 1 4.256-2.882 8 8 0 0 0 3.968-9.187 23.973 23.973 0 0 1 11.912-27.522 8 8 0 0 0 3.968-9.189 23.96 23.96 0 0 1 11.9-27.516 8 8 0 0 0 3.986-9.192 23.751 23.751 0 0 1 1.1-15.855 24.033 24.033 0 0 1 31.564-12.5 23.67 23.67 0 0 1 11.66 10.782 8 8 0 0 0 9.191 3.979 23.994 23.994 0 0 1 27.539 11.901 8 8 0 0 0 9.175 3.967 23.976 23.976 0 0 1 27.527 11.9 8 8 0 0 0 9.193 3.978 23.981 23.981 0 0 1 27.531 11.915 8 8 0 0 0 9.188 3.969 23.993 23.993 0 0 1 28.348 32.675z"/><path d="m112 376h16v16h-16z"/><path d="m160 376h16v16h-16z"/><path d="m160 424h16v16h-16z"/><path d="m208 376h16v16h-16z"/><path d="m112 328h16v16h-16z"/><path d="m160 328h16v16h-16z"/><path d="m208 328h16v16h-16z"/><path d="m323.112 86.93h16.001v15.999h-16.001z" transform="matrix(.397 -.918 .918 .397 112.572 361.177)"/><path d="m304.061 130.987h16v16h-16z" transform="matrix(.397 -.918 .918 .397 60.616 370.234)"/><path d="m285.009 175.045h16.001v15.999h-16.001z" transform="matrix(.397 -.918 .918 .397 8.712 379.347)"/><path d="m265.958 219.101h16v16h-16z" transform="matrix(.397 -.918 .918 .397 -43.236 388.397)"/><path d="m246.905 263.159h16.001v15.999h-16.001z" transform="matrix(.397 -.918 .918 .397 -95.148 397.518)"/><path d="m367.17 105.981h16v16h-16z" transform="matrix(.397 -.918 .918 .397 121.624 413.077)"/><path d="m348.118 150.039h16v16h-16z" transform="matrix(.397 -.918 .918 .397 69.697 422.159)"/><path d="m329.066 194.096h16.001v15.999h-16.001z" transform="matrix(.397 -.918 .918 .397 17.797 431.277)"/><path d="m310.014 238.153h16v16h-16z" transform="matrix(.397 -.918 .918 .397 -34.155 440.323)"/><path d="m290.962 282.211h16.001v15.999h-16.001z" transform="matrix(.397 -.918 .918 .397 -86.063 449.447)"/><path d="m85.051 213.358h15.999v16.001h-15.999z" transform="matrix(.895 -.445 .445 .895 -88.867 64.63)"/><path d="m128.025 191.975h15.999v16.001h-15.999z" transform="matrix(.895 -.445 .445 .895 -74.839 81.529)"/><path d="m149.408 234.95h15.999v16h-15.999z" transform="matrix(.895 -.445 .445 .895 -91.739 95.547)"/><path d="m170.999 170.593h15.999v15.999h-15.999z" transform="matrix(.895 -.445 .445 .895 -60.815 98.434)"/><path d="m63.668 170.383h15.999v16h-15.999z" transform="matrix(.895 -.445 .445 .895 -71.958 50.601)"/><path d="m106.643 149.001h15.999v15.999h-15.999z" transform="matrix(.895 -.445 .445 .895 -57.934 67.505)"/><path d="m149.617 127.618h15.999v16.001h-15.999z" transform="matrix(.895 -.445 .445 .895 -43.912 84.415)"/><path d="m192.381 213.568h16v16h-16z" transform="matrix(.895 -.446 .446 .895 -77.731 112.488)"/><path d="m411.227 125.033h16v16h-16z" transform="matrix(.397 -.918 .918 .397 130.706 465.004)"/><path d="m392.175 169.091h16v16h-16z" transform="matrix(.397 -.918 .918 .397 78.779 474.086)"/><path d="m373.124 213.147h16v16h-16z" transform="matrix(.397 -.918 .918 .397 26.854 483.167)"/><path d="m354.072 257.205h16v16h-16z" transform="matrix(.397 -.918 .918 .397 -25.073 492.249)"/><path d="m335.02 301.262h16v16h-16z" transform="matrix(.397 -.918 .918 .397 -76.998 501.33)"/><path d="m112 424h16v16h-16z"/><path d="m208 424h16v16h-16z"/></g></svg>
