<svg id="Layer_1" enable-background="new 0 0 512.054 512.054" height="512" viewBox="0 0 512.054 512.054" width="512" xmlns="http://www.w3.org/2000/svg"><path d="m496.566 342.789c23.345 28.455 12.397 72.915-20.589 87.818 17.385 37.352-11.021 81.909-52.387 81.444l-201.504-.039c-26.533-1.061-26.51-38.954.004-40h.004l201.5.039c9.646 0 17.496-7.851 17.496-17.5 0-9.634-7.786-18.091-16.821-18.5h-34.179c-26.536-1.056-26.516-38.953 0-40h61.5c23.222-.964 23.204-34.044 0-35h-61.5c-26.536-1.056-26.516-38.953 0-40h64.5c23.222-.964 23.204-34.044 0-35h-64.5c-26.536-1.056-26.516-38.953 0-40h49.5c23.222-.964 23.204-34.044 0-35l-132.506-.039c-14.697.131-24.574-15.864-17.883-28.944 27.819-56.645 62.999-127.747 27.941-140.114-6.06-2.474-11.521-2.582-16.229-.316-4.845 2.331-9.056 7.257-11.907 13.914-14.452 46.878-31.877 82.583-72.77 124.867-29.383 30.882-70.87 48.593-113.822 48.593h-28.324c-18.748 0-34 15.252-34 34v91c-1.056 26.536-38.953 26.516-40 0v-91c0-40.804 33.196-74 74-74h28.324c32.051 0 62.976-13.182 84.845-36.165 18.069-18.99 32.332-37.706 42.392-55.625 7.755-13.813 21.855-55.659 22.055-56.146 12.957-33.117 47.464-50.15 80.56-36.152 66.46 30.647 35.47 104.181 6.886 166.098l100.445.03c43.984-.43 72.181 49.167 49.564 86.587 26.947 19.553 30.77 61.062 7.405 85.15zm-351.581 149.216c.238-.24.47-.486.695-.738l125.308-139.913c7.369-8.228 6.673-20.873-1.555-28.242-8.229-7.369-20.872-6.672-28.242 1.555l-124.924 139.486c-10.304 10.514-28.539 10.381-38.673-.264l-43.256-43.913c-7.752-7.87-20.415-7.964-28.284-.213s-7.964 20.414-.213 28.283l43.301 43.958c12.791 12.901 29.81 20.006 47.921 20.006s35.131-7.103 47.922-20.005z"/></svg>
